<?xml version="1.0" encoding="UTF-8"?>
<svg xmlns="http://www.w3.org/2000/svg" xmlns:xlink="http://www.w3.org/1999/xlink" width="512px" height="512px" viewBox="0 0 512 512" version="1.1">
<g id="surface1">
<path style=" stroke:none;fill-rule:nonzero;fill:rgb(0%,0%,0%);fill-opacity:1;" d="M 358.457031 486.695312 C 333.074219 486.695312 309.222656 476.234375 291.296875 457.242188 C 281.851562 447.226562 269.320312 441.714844 256.003906 441.714844 C 242.691406 441.714844 230.160156 447.234375 220.710938 457.242188 C 202.789062 476.234375 178.9375 486.695312 153.550781 486.695312 C 128.160156 486.695312 104.308594 476.234375 86.382812 457.242188 C 49.597656 418.25 49.597656 354.804688 86.382812 315.820312 L 139.285156 255.859375 C 169.8125 221.265625 211.265625 202.207031 256.003906 202.207031 C 300.75 202.207031 342.199219 221.265625 372.71875 255.859375 L 425.683594 315.890625 C 462.398438 354.890625 462.375 418.277344 425.617188 457.242188 C 407.695312 476.234375 383.84375 486.695312 358.457031 486.695312 Z M 358.457031 486.695312 "/>
<path style=" stroke:none;fill-rule:nonzero;fill:rgb(0%,0%,0%);fill-opacity:1;" d="M 183.273438 166.527344 C 154.9375 166.527344 133.203125 147.058594 126.15625 113.914062 C 117.328125 72.390625 136.097656 33.09375 168 26.316406 C 199.90625 19.511719 233.027344 47.804688 241.851562 89.324219 C 250.035156 127.8125 232.613281 157.507812 197.472656 164.980469 C 192.589844 166.015625 187.84375 166.527344 183.273438 166.527344 Z M 183.273438 166.527344 "/>
<path style=" stroke:none;fill-rule:nonzero;fill:rgb(0%,0%,0%);fill-opacity:1;" d="M 328.730469 166.527344 C 324.15625 166.527344 319.414062 166.015625 314.53125 164.980469 C 279.390625 157.507812 261.972656 127.8125 270.148438 89.324219 C 278.976562 47.800781 312.109375 19.523438 344.007812 26.316406 C 375.902344 33.09375 394.671875 72.394531 385.851562 113.914062 C 378.796875 147.054688 357.0625 166.527344 328.730469 166.527344 Z M 328.730469 166.527344 "/>
<path style=" stroke:none;fill-rule:nonzero;fill:rgb(0%,0%,0%);fill-opacity:1;" d="M 444.324219 258.878906 C 435.617188 258.878906 426.660156 256.847656 418.007812 252.8125 C 403.007812 245.816406 392.007812 234.230469 387.039062 220.1875 C 381.65625 204.976562 383.300781 187.308594 391.789062 169.113281 C 409.730469 130.640625 448.363281 110.554688 477.925781 124.335938 C 507.476562 138.113281 516.929688 180.628906 498.984375 219.101562 C 490.5 237.300781 478.023438 249.910156 462.910156 255.570312 C 457.003906 257.78125 450.726562 258.878906 444.324219 258.878906 Z M 444.324219 258.878906 "/>
<path style=" stroke:none;fill-rule:nonzero;fill:rgb(0%,0%,0%);fill-opacity:1;" d="M 67.675781 258.878906 C 61.273438 258.878906 55.003906 257.78125 49.089844 255.570312 C 33.976562 249.910156 21.5 237.300781 13.015625 219.101562 C -4.921875 180.628906 4.523438 138.121094 34.074219 124.335938 C 63.636719 110.566406 102.273438 130.640625 120.210938 169.121094 C 128.699219 187.320312 130.339844 204.976562 124.957031 220.195312 C 119.988281 234.238281 108.992188 245.820312 93.984375 252.816406 C 85.339844 256.847656 76.382812 258.878906 67.675781 258.878906 Z M 67.675781 258.878906 "/>
</g>
</svg>
