<?xml version="1.0" encoding="UTF-8"?>
<svg xmlns="http://www.w3.org/2000/svg" xmlns:xlink="http://www.w3.org/1999/xlink" width="192px" height="192px" viewBox="0 0 192 192" version="1.1">
<g id="surface1">
<path style=" stroke:none;fill-rule:nonzero;fill:rgb(0%,0%,0%);fill-opacity:1;" d="M 134.421875 182.511719 C 124.902344 182.511719 115.957031 178.585938 109.234375 171.464844 C 105.695312 167.710938 100.996094 165.644531 96.003906 165.644531 C 91.007812 165.644531 86.308594 167.710938 82.765625 171.464844 C 76.046875 178.585938 67.101562 182.511719 57.582031 182.511719 C 48.058594 182.511719 39.117188 178.585938 32.394531 171.464844 C 18.597656 156.84375 18.597656 133.050781 32.394531 118.433594 L 52.230469 95.949219 C 63.679688 82.972656 79.222656 75.828125 96.003906 75.828125 C 112.78125 75.828125 128.324219 82.972656 139.769531 95.949219 L 159.632812 118.460938 C 173.398438 133.085938 173.390625 156.855469 159.605469 171.464844 C 152.886719 178.585938 143.941406 182.511719 134.421875 182.511719 Z M 134.421875 182.511719 "/>
<path style=" stroke:none;fill-rule:nonzero;fill:rgb(0%,0%,0%);fill-opacity:1;" d="M 68.726562 62.445312 C 58.101562 62.445312 49.949219 55.148438 47.308594 42.71875 C 43.996094 27.148438 51.035156 12.410156 63 9.867188 C 74.964844 7.316406 87.386719 17.925781 90.695312 33.496094 C 93.761719 47.929688 87.230469 59.066406 74.054688 61.867188 C 72.222656 62.257812 70.441406 62.445312 68.726562 62.445312 Z M 68.726562 62.445312 "/>
<path style=" stroke:none;fill-rule:nonzero;fill:rgb(0%,0%,0%);fill-opacity:1;" d="M 123.273438 62.445312 C 121.558594 62.445312 119.78125 62.257812 117.949219 61.867188 C 104.773438 59.066406 98.238281 47.929688 101.304688 33.496094 C 104.617188 17.925781 117.042969 7.320312 129.003906 9.867188 C 140.964844 12.410156 148.003906 27.148438 144.695312 42.71875 C 142.050781 55.144531 133.898438 62.445312 123.273438 62.445312 Z M 123.273438 62.445312 "/>
<path style=" stroke:none;fill-rule:nonzero;fill:rgb(0%,0%,0%);fill-opacity:1;" d="M 166.621094 97.078125 C 163.355469 97.078125 159.996094 96.316406 156.753906 94.804688 C 151.128906 92.179688 147.003906 87.835938 145.140625 82.570312 C 143.121094 76.867188 143.738281 70.242188 146.921875 63.417969 C 153.648438 48.992188 168.136719 41.457031 179.222656 46.625 C 190.304688 51.792969 193.847656 67.738281 187.121094 82.164062 C 183.9375 88.988281 179.257812 93.714844 173.59375 95.839844 C 171.375 96.667969 169.023438 97.078125 166.621094 97.078125 Z M 166.621094 97.078125 "/>
<path style=" stroke:none;fill-rule:nonzero;fill:rgb(0%,0%,0%);fill-opacity:1;" d="M 25.378906 97.078125 C 22.976562 97.078125 20.625 96.667969 18.40625 95.839844 C 12.742188 93.714844 8.0625 88.988281 4.878906 82.164062 C -1.847656 67.738281 1.695312 51.796875 12.777344 46.625 C 23.863281 41.460938 38.351562 48.992188 45.078125 63.417969 C 48.261719 70.246094 48.878906 76.867188 46.859375 82.574219 C 44.996094 87.839844 40.871094 92.183594 35.246094 94.808594 C 32.003906 96.316406 28.644531 97.078125 25.378906 97.078125 Z M 25.378906 97.078125 "/>
</g>
</svg>
